<?xml version="1.0" encoding="utf-8"?>
<!-- Generator: Adobe Illustrator 16.0.0, SVG Export Plug-In . SVG Version: 6.00 Build 0)  -->
<!DOCTYPE svg PUBLIC "-//W3C//DTD SVG 1.1//EN" "http://www.w3.org/Graphics/SVG/1.1/DTD/svg11.dtd">
<svg version="1.1" id="Layer_1" xmlns="http://www.w3.org/2000/svg" xmlns:xlink="http://www.w3.org/1999/xlink" x="0px" y="0px"
	 width="100px" height="100px" viewBox="0 0 100 100" enable-background="new 0 0 100 100" xml:space="preserve">
<g>
	<path fill-rule="evenodd" clip-rule="evenodd" fill="#24231C" d="M64.016,23.783c1.974-0.084,3.946-0.224,5.921-0.241
		c4.05-0.036,6.258,2.129,6.271,6.152c0.035,11.029,0.033,22.056,0.063,33.083c0.01,3.033,0.099,6.069,0.108,9.104
		c0.01,3.255-1.617,5.174-4.813,5.201c-14.743,0.128-29.487,0.178-44.23,0.186c-2.621,0.002-4.233-2.083-4.251-5.212
		c-0.071-12.159-0.112-24.319-0.163-36.478c-0.008-1.911-0.013-3.822-0.01-5.733c0.006-3.977,0.8-5.002,4.614-5.983
		c0.167-0.021,0.336-0.042,0.503-0.063c3.661,0.004,7.322,0.008,10.983,0.012c0.167,0.005,0.333,0.009,0.501,0.013
		c4.008-0.015,8.016-0.03,12.025-0.045c0.16,0,0.322,0.001,0.483,0.001c3.827,0.122,7.653,0.5,11.488,0.143
		C63.676,23.875,63.845,23.829,64.016,23.783z M55.526,25.414c-8.942,0.05-17.885,0.117-26.828,0.142
		c-3.426,0.01-4.403,0.775-4.396,3.958c0.029,14.161,0.093,28.322,0.173,42.483c0.016,2.679,0.932,3.684,3.578,3.68
		c14.486-0.021,28.971-0.109,43.457-0.173c2.363-0.011,3.445-1.159,3.434-3.546c-0.066-14.077-0.084-28.152-0.137-42.228
		c-0.013-3.254-0.971-4.186-4.381-4.414c-1.136-0.252-2.269-0.331-3.397,0.043c-1.121,0.003-2.243,0.006-3.365,0.009
		c-0.277,0.014-0.553,0.028-0.83,0.042c-0.593-0.015-1.186-0.029-1.778-0.044c-0.275,0.008-0.553,0.016-0.828,0.024
		c-0.243,0.007-0.485,0.013-0.728,0.02c-0.28-0.007-0.56-0.013-0.841-0.02c-0.764,0-1.527,0-2.291,0
		C56.088,25.397,55.807,25.405,55.526,25.414z"/>
	<path fill-rule="evenodd" clip-rule="evenodd" fill="#D7D6CD" d="M28.027,23.798c-0.167,0.021-0.335,0.042-0.503,0.063
		C27.664,23.607,27.829,23.566,28.027,23.798z"/>
	<path fill-rule="evenodd" clip-rule="evenodd" fill="#D7D6CD" d="M39.511,23.824c-0.167-0.004-0.334-0.008-0.501-0.013
		C39.184,23.58,39.351,23.588,39.511,23.824z"/>
	<path fill-rule="evenodd" clip-rule="evenodd" fill="#D7D6CD" d="M52.02,23.779c-0.161,0-0.323,0-0.483-0.001
		C51.696,23.779,51.858,23.779,52.02,23.779z"/>
	<path fill-rule="evenodd" clip-rule="evenodd" fill="#0F0F0E" d="M48.701,31.62c-3.532-0.073-3.892,0.297-4.418,3.455
		c-0.48,2.875-1.233,5.698,2.613,7.01c0.783,0.267,0.954,1.338,0.542,2.292c-0.709,1.645-1.732,2.976-3.311,3.874
		c-1.353,0.771-2.501,0.497-2.87-0.965c-0.779-3.093-2.822-3.042-5.232-2.44c-0.756,0.189-1.527,0.338-2.3,0.424
		c-0.765,0.085-1.705,0.251-2.026-0.685c-0.38-1.105,0.59-1.607,1.355-1.896c1.691-0.637,3.417-1.276,5.187-1.581
		c1.66-0.286,2.193-1.229,2.233-2.656c0.145-5.298,1.688-7.619-6.016-6.124c-1.61,0.313-3.26,0.503-4.899,0.564
		c-1.3,0.048-2.768-0.072-2.997-1.786c-0.199-1.485,0.859-2.076,2.124-2.493c1.008-0.333,2.008-0.486,3.059-0.491
		c5.547-0.028,11.104-0.39,16.62,0.563c1.396,0.242,3.605-0.083,3.59,1.675C51.937,32.528,49.767,31.544,48.701,31.62z"/>
	<path fill-rule="evenodd" clip-rule="evenodd" fill="#121210" d="M71.013,36.328c-0.226,4.948-0.211,9.979-1.022,14.963
		c-0.16,0.974-0.151,2.16-1.353,2.144c-1.35-0.019-1.072-1.313-1.086-2.212c-0.073-5.487-0.581-6.021-6.049-6.31
		c-1.621-0.085-2.848,0.273-3.316,2.124c-0.566,2.244-2.058,2.035-3.558,0.976c-0.839-0.591-1.586-1.362-2.235-2.165
		c-1.519-1.874-1.317-3.264,0.936-3.981c1.835-0.583,1.972-1.675,1.871-3.117c-0.122-1.725-0.313-3.445-0.486-5.167
		c-0.066-0.669,0.161-1.32,0.7-1.566c0.653-0.297,1.123,0.329,1.458,0.812c1.018,1.463,1.171,3.231,1.585,4.894
		c0.739,2.969,5.284,5.087,7.955,3.649c0.828-0.446,0.925-1.219,0.876-2.013c-0.122-2.075-0.283-4.146-0.443-6.218
		c-0.115-1.466-0.265-2.93-0.38-4.396c-0.089-1.149,0.623-1.81,1.58-2.103c1.165-0.356,1.794,0.464,2.14,1.409
		C71.156,30.709,70.915,33.5,71.013,36.328z"/>
	<path fill-rule="evenodd" clip-rule="evenodd" fill="#121211" d="M28.027,63.282c-0.374-4.146,0.48-8.435,0.715-12.755
		c0.057-1.057,0.182-2.593,1.662-2.423c1.371,0.157,0.914,1.622,0.971,2.605c0.035,0.606,0.062,1.221-0.006,1.82
		c-0.239,2.09,0.527,3.317,2.744,3.532c1.112,0.106,2.212,0.382,3.303,0.641c1.733,0.411,2.704-0.219,3.325-1.914
		c0.932-2.544,2.131-2.781,4.24-1.128c0.98,0.768,1.662,1.765,2.269,2.812c0.754,1.298,0.437,2.67-0.944,2.947
		c-3.132,0.63-2.79,2.832-2.625,4.991c0.084,1.115,0.453,2.207,0.608,3.319c0.08,0.577,0.146,1.281-0.639,1.507
		c-0.714,0.204-1.123-0.255-1.458-0.804c-1.064-1.743-1.423-3.732-1.667-5.681c-0.257-2.052-1.235-2.705-3.188-2.808
		c-6.003-0.314-6.441,0.116-5.558,6.058c0.242,1.627,0.587,3.273,0.525,4.898c-0.042,1.139,0.934,2.933-1.306,3.286
		c-2.326,0.368-2.523-1.446-2.758-2.913c-0.258-1.613-0.167-3.281-0.208-4.927C28.008,65.395,28.027,64.441,28.027,63.282z"/>
	<path fill-rule="evenodd" clip-rule="evenodd" fill="#111110" d="M61.351,73.082c-4.017,0.262-8.16-0.131-12.291-0.755
		c-1.059-0.161-2.331-0.318-2.147-1.675c0.161-1.175,1.35-0.948,2.34-0.986c1.64-0.063,3.747,0.929,4.764-1.028
		c1.22-2.346,1.339-5.024,1.073-7.631c-0.103-1.021-1.38-0.953-2.126-1.211c-1.704-0.593-1.822-1.644-1.233-3.052
		c0.476-1.141,1.218-2.087,2.161-2.892c2.144-1.825,3.106-1.605,4.04,1.07c0.462,1.323,1.19,1.982,2.664,1.896
		c1.566-0.09,3.11-0.23,4.631-0.627c0.697-0.184,1.437-0.28,1.793,0.547c0.408,0.946-0.223,1.493-0.949,1.857
		c-1.7,0.855-3.493,1.501-5.393,1.687c-1.604,0.158-2.366,0.904-2.265,2.521c0.024,0.345-0.03,0.695-0.034,1.043
		c-0.072,6.022,0.375,6.39,6.43,5.428c1.709-0.272,3.425-0.507,5.146-0.688c1.032-0.107,1.937,0.17,2.162,1.375
		c0.217,1.163-0.158,1.995-1.325,2.492c-0.897,0.382-1.778,0.648-2.76,0.637C65.861,73.065,63.689,73.082,61.351,73.082z"/>
	<path fill-rule="evenodd" clip-rule="evenodd" fill="#111111" d="M52.835,51.089c-0.386,1.563-1.414,2.912-3.337,3.183
		c-1.519,0.214-3.63-2.098-3.337-3.671c0.326-1.745,1.388-3.017,3.316-3.127C51.11,47.38,52.873,49.19,52.835,51.089z"/>
</g>
</svg>
